<?xml version="1.0" encoding="utf-8"?>
<!-- Generator: Adobe Illustrator 19.1.0, SVG Export Plug-In . SVG Version: 6.00 Build 0)  -->
<svg version="1.1" id="Layer_1" xmlns="http://www.w3.org/2000/svg" xmlns:xlink="http://www.w3.org/1999/xlink" x="0px" y="0px"
	 viewBox="0 0 600 600" enable-background="new 0 0 600 600" xml:space="preserve">
<g>
	<g>
		<g>
			<path fill="#1976D2" d="M327.6,143h243.1c0,0,65.2,45,1.1,89H327.6V143z"/>
			<path fill="#1976D2" d="M327.6,364h243.1c0,0,65.2,44,1.1,84H327.6V364z"/>
			<path fill="#1976D2" d="M355.6,299.1V80H125.2C-2.5,80,17.6,299.8,17.6,299.8v-1c0,0-20.1,222.2,107.6,222.2h230.4V299.1z"/>
		</g>
		<rect y="79.5" fill="#1976D2" width="265.7" height="440.4"/>
	</g>
	<path id="brry_4_" fill="#FFFFFF" d="M244.3,329.3c0,0,8.1-18.5,7.6-18.8c-0.5-0.4-18.5,11-18.5,11s-22.1-17-23-17
		c-1.2,0-20,15.5-20,15.5s-20-14.5-20.5-14c-0.5,0.6,6.5,23.3,6.5,23.3l0,0C147.4,341.7,127,368.5,127,401c0,44,37.3,79.7,83.4,79.7
		c47.6,0,83.4-35.7,83.4-79.7C293.8,368.5,273.4,341.7,244.3,329.3L244.3,329.3z"/>
</g>
</svg>
